<svg id="Layer_1" data-name="Layer 1" xmlns="http://www.w3.org/2000/svg" viewBox="0 0 24 24"><defs><style>.cls-1{fill:#212121;}.cls-2{fill:#fff;}</style></defs><rect class="cls-1" x="0.03" width="24" height="24" rx="3.8"/><path class="cls-2" d="M19.5,7.92a1.43,1.43,0,0,0-.2-.73l-5,4.36,5,5a1.43,1.43,0,0,0,.15-.64Z"/><path class="cls-2" d="M10.72,11.16l.95.82a.51.51,0,0,0,.66,0l1-.83,5.25-4.63a1.62,1.62,0,0,0-.54-.1H6a1.37,1.37,0,0,0-.49.09Z"/><path class="cls-2" d="M13.58,12.21l-.6.53a1.56,1.56,0,0,1-2,0l-.61-.52-5,5a1.43,1.43,0,0,0,.64.15H18a1.43,1.43,0,0,0,.64-.15Z"/><path class="cls-2" d="M4.72,7.14a1.53,1.53,0,0,0-.22.78v8a1.43,1.43,0,0,0,.15.64l5-5Z"/></svg>